<svg viewBox="0 0 179 76" fill="none" xmlns="http://www.w3.org/2000/svg">
<path d="M168.061 75.0607C167.475 75.6464 166.525 75.6464 165.939 75.0607L156.393 65.5147C155.808 64.9289 155.808 63.9792 156.393 63.3934C156.979 62.8076 157.929 62.8076 158.515 63.3934L167 71.8787L175.485 63.3934C176.071 62.8076 177.021 62.8076 177.607 63.3934C178.192 63.9792 178.192 64.9289 177.607 65.5147L168.061 75.0607ZM165.5 74C165.5 67.7267 163.88 63.0218 161.145 59.4357L163.53 57.6164C166.726 61.8065 168.5 67.1795 168.5 74H165.5ZM132.627 47.6485C122.236 46.4744 110.761 46.4939 99.888 46.0885L99.9997 43.0906C110.704 43.4896 122.423 43.4765 132.964 44.6675L132.627 47.6485ZM67.1453 39.8053C62.0219 36.638 58.9285 31.8343 58.9285 24.7773H61.9285C61.9285 30.7508 64.4457 34.6094 68.7228 37.2536L67.1453 39.8053ZM58.9285 24.7773C58.9285 15.7149 57.8064 10.8548 54.7932 8.0222L56.848 5.83639C60.8941 9.64003 61.9285 15.7648 61.9285 24.7773H58.9285ZM18.9736 3.54598C13.4067 3.59367 7.10736 3.66145 0 3.66145V0.661452C7.09103 0.661451 13.3736 0.593842 18.9479 0.546088L18.9736 3.54598Z" fill="#7ED956"/>
</svg>
