<svg viewBox="0 0 280 166" fill="none" xmlns="http://www.w3.org/2000/svg">
<path d="M269.061 164.697C268.475 165.282 267.525 165.282 266.939 164.697L257.393 155.151C256.808 154.565 256.808 153.615 257.393 153.029C257.979 152.443 258.929 152.443 259.515 153.029L268 161.515L276.485 153.029C277.071 152.443 278.021 152.443 278.607 153.029C279.192 153.615 279.192 154.565 278.607 155.151L269.061 164.697ZM266.5 163.636C266.5 158.364 266.147 153.546 265.477 149.144L268.443 148.692C269.138 153.261 269.5 158.23 269.5 163.636H266.5ZM254.957 123.091C249.027 115.58 241.09 110.569 231.839 107.18L232.871 104.363C242.503 107.892 250.956 113.181 257.312 121.232L254.957 123.091ZM203.602 101.275C194.119 100.292 184.251 99.9198 174.464 99.5558L174.576 96.5578C184.345 96.9212 194.313 97.2963 203.912 98.2907L203.602 101.275ZM145.114 97.7906C134.387 96.6068 124.476 94.5322 116.373 90.4642L117.719 87.7831C125.35 91.6141 134.845 93.6392 145.443 94.8087L145.114 97.7906ZM97.3542 67.8028C96.1214 63.4434 95.4751 58.4967 95.4751 52.8848H98.4751C98.4751 58.2684 99.0952 62.9349 100.241 66.9864L97.3542 67.8028ZM95.4751 52.8848C95.4751 46.5747 95.3077 41.0594 94.91 36.236L97.8999 35.9895C98.3068 40.924 98.4751 46.528 98.4751 52.8848H95.4751ZM82.2599 8.34316C75.5223 4.56146 65.4298 3.38989 50.2206 3.17564L50.2628 0.175939C65.4018 0.389198 76.2388 1.52339 83.7282 5.72708L82.2599 8.34316ZM16.7999 3.40277C11.5413 3.45766 5.94766 3.49913 0 3.49913V0.49913C5.93384 0.49913 11.5164 0.457762 16.7685 0.402931L16.7999 3.40277Z" fill="#7ED956"/>
</svg>
