<svg viewBox="0 0 323 102" fill="none" xmlns="http://www.w3.org/2000/svg">
<path d="M312.061 101.061C311.475 101.646 310.525 101.646 309.939 101.061L300.393 91.5147C299.808 90.9289 299.808 89.9792 300.393 89.3934C300.979 88.8076 301.929 88.8076 302.515 89.3934L311 97.8787L319.485 89.3934C320.071 88.8076 321.021 88.8076 321.607 89.3934C322.192 89.9792 322.192 90.9289 321.607 91.5147L312.061 101.061ZM309.5 100C309.5 94.9225 308.432 90.5939 306.49 86.8808L309.148 85.4905C311.336 89.6732 312.5 94.4861 312.5 100H309.5ZM285.144 70.6639C277.28 67.8049 267.909 65.921 257.613 64.6573L257.979 61.6796C268.39 62.9576 278.008 64.8776 286.169 67.8445L285.144 70.6639ZM229.247 62.536C219.845 62.1543 210.222 61.9789 200.715 61.7939L200.773 58.7945C210.271 58.9793 219.928 59.1553 229.369 59.5385L229.247 62.536ZM172.094 60.9542C161.736 60.4465 152.016 59.6196 143.529 58.1199L144.051 55.1656C152.357 56.6334 161.933 57.4526 172.24 57.9578L172.094 60.9542ZM116.678 46.9657C113.049 43.2945 111.035 38.6863 111.035 33.0024H114.035C114.035 37.8913 115.733 41.7431 118.811 44.8565L116.678 46.9657ZM111.035 33.0024C111.035 26.2884 110.426 21.2068 108.888 17.3147L111.678 16.2119C113.426 20.6365 114.035 26.1735 114.035 33.0024H111.035ZM82.269 4.41515C73.8246 3.66035 63.0966 3.48536 49.4918 3.50093L49.4883 0.500931C63.0916 0.485361 73.942 0.658884 82.5361 1.42706L82.269 4.41515ZM16.502 3.67685C11.2808 3.70212 5.78458 3.71975 0 3.71975V0.719754C5.7785 0.719753 11.2697 0.702141 16.4875 0.676886L16.502 3.67685Z" fill="#7ED956"/>
</svg>
