<svg viewBox="0 0 239 105" fill="none" xmlns="http://www.w3.org/2000/svg">
<path d="M70.6714 45.3172L71.1377 43.8915L70.6714 45.3172ZM233.383 103.581C233.062 104.345 232.182 104.704 231.419 104.383L218.974 99.1515C218.21 98.8305 217.851 97.9512 218.172 97.1875C218.493 96.4238 219.372 96.0649 220.136 96.3859L231.198 101.036L235.848 89.9735C236.169 89.2098 237.049 88.851 237.813 89.172C238.576 89.493 238.935 90.3723 238.614 91.136L233.383 103.581ZM230.611 103.567C228.921 99.425 226.163 95.7739 222.436 92.4974L224.417 90.2443C228.427 93.7699 231.493 97.7878 233.389 102.433L230.611 103.567ZM197.318 79.1471C189.061 76.2093 179.665 73.6343 169.443 71.1649L170.148 68.2488C180.412 70.7285 189.924 73.332 198.324 76.3207L197.318 79.1471ZM141.008 64.7686C131.786 62.763 122.223 60.6805 112.511 58.3849L113.201 55.4654C122.883 57.7538 132.42 59.8308 141.646 61.8371L141.008 64.7686ZM84.201 51.0373C79.5254 49.6896 74.8536 48.2631 70.2052 46.7429L71.1377 43.8915C75.7488 45.3995 80.3865 46.8156 85.0319 48.1546L84.201 51.0373ZM70.2052 46.7429C62.8097 44.3244 56.1546 41.9017 50.1735 39.5002L51.2913 36.7162C57.2061 39.0911 63.799 41.4916 71.1377 43.8915L70.2052 46.7429ZM12.6787 19.095C7.96729 15.288 4.84853 11.7804 2.94783 8.72477C1.06328 5.69512 0.303253 2.9873 0.542664 0.834229L3.52429 1.16577C3.38766 2.39444 3.80173 4.4177 5.49521 7.14022C7.17255 9.83677 10.0358 13.1024 14.5642 16.7616L12.6787 19.095Z" fill="#7ED956"/>
</svg>
