<svg viewBox="0 0 239 105" fill="none" xmlns="http://www.w3.org/2000/svg">
<path d="M168.329 45.3172L167.862 43.8915L167.862 43.8915L168.329 45.3172ZM5.6172 103.581C5.93821 104.345 6.81755 104.704 7.58125 104.383L20.0265 99.1515C20.7902 98.8305 21.149 97.9512 20.828 97.1875C20.507 96.4238 19.6277 96.0649 18.864 96.3859L7.80155 101.036L3.15152 89.9735C2.8305 89.2098 1.95117 88.851 1.18746 89.172C0.423764 89.493 0.0648978 90.3723 0.385915 91.136L5.6172 103.581ZM8.3888 103.567C10.0791 99.425 12.8371 95.7739 16.5637 92.4974L14.5829 90.2443C10.5729 93.7699 7.50703 97.7878 5.6112 102.433L8.3888 103.567ZM41.6821 79.1471C49.9391 76.2093 59.3351 73.6343 69.5568 71.1649L68.8523 68.2488C58.5876 70.7285 49.0763 73.332 40.6764 76.3207L41.6821 79.1471ZM97.992 64.7686C107.214 62.763 116.777 60.6805 126.489 58.3849L125.799 55.4654C116.117 57.7538 106.58 59.8308 97.3545 61.8371L97.992 64.7686ZM154.799 51.0373C159.475 49.6896 164.146 48.2631 168.795 46.7429L167.862 43.8915C163.251 45.3995 158.614 46.8156 153.968 48.1546L154.799 51.0373ZM168.795 46.7429C176.19 44.3244 182.845 41.9017 188.827 39.5002L187.709 36.7162C181.794 39.0911 175.201 41.4916 167.862 43.8915L168.795 46.7429ZM226.321 19.095C231.033 15.288 234.151 11.7804 236.052 8.72477C237.937 5.69512 238.697 2.9873 238.457 0.834229L235.476 1.16577C235.612 2.39444 235.198 4.4177 233.505 7.14022C231.827 9.83677 228.964 13.1024 224.436 16.7616L226.321 19.095Z" fill="#7ED956"/>
</svg>
