<svg  viewBox="0 0 32 32" fill="none" xmlns="http://www.w3.org/2000/svg">
<g clip-path="url(#clip0_191_1378)">
<path fill-rule="evenodd" clip-rule="evenodd" d="M11.45 4.63354H11.3906H11.4352C11.4401 4.63421 11.4451 4.63421 11.45 4.63354Z" fill="#7ED956"/>
<path fill-rule="evenodd" clip-rule="evenodd" d="M31.9108 13.6614C31.7593 12.5503 31.3699 11.4829 30.7679 10.5288C30.5006 10.1537 30.3534 9.70953 30.3449 9.25256C30.3271 7.95442 29.9529 6.68475 29.2614 5.57615C28.9423 5.03231 28.6158 4.48846 28.267 3.95911C27.8627 3.25282 27.3025 2.64344 26.6269 2.17529C26.0472 1.82832 25.4873 1.45069 24.9497 1.04409C23.9901 0.428726 22.8843 0.0654138 21.7391 -0.0107948C20.5939 -0.0870034 19.4479 0.126463 18.4117 0.609011C17.5581 1.04854 16.7568 1.57867 16.0221 2.18979C15.7137 2.48078 15.3187 2.66865 14.8941 2.72639C14.1503 2.83248 13.4303 3.06047 12.7642 3.40076C12.3189 3.6183 11.8366 3.78508 11.7104 4.35793C11.7104 4.4522 11.5546 4.52471 11.4507 4.60448C11.6382 4.6078 11.8245 4.57491 11.999 4.50772C12.1734 4.44053 12.3326 4.34034 12.4674 4.21291V4.16215H12.408C12.408 4.16215 12.4525 4.16215 12.4599 4.16215H12.5045C12.6887 4.12181 12.8802 4.12581 13.0624 4.17382C13.2447 4.22182 13.4123 4.31237 13.5508 4.4377C12.9963 4.92892 12.3447 5.30402 11.6362 5.5399C10.7828 5.80094 9.91448 5.98948 9.06847 6.20702C8.92747 6.06199 9.06847 5.95322 9.06847 5.8372C8.97049 5.83045 8.87211 5.84278 8.77905 5.87346C7.13155 7.10618 5.40984 8.23738 3.85882 9.59337C3.6553 9.78991 3.46679 10.0008 3.29481 10.2242C2.45984 11.2697 1.72221 12.386 1.09073 13.5598C0.562094 14.4734 0.22883 15.4824 0.111142 16.5256C-0.210919 19.0671 0.0553757 21.6468 0.890362 24.0742C1.45243 25.6755 2.40503 27.119 3.66587 28.28C4.43557 28.9615 5.25943 29.5822 6.12969 30.1363C7.44927 30.9827 8.93148 31.5576 10.4859 31.8259C11.76 32.0153 13.0504 32.0785 14.3375 32.0144C15.3076 32.0153 16.2692 31.8382 17.1724 31.4923C18.2039 31.108 19.2503 30.7672 20.2818 30.3611C20.5147 30.2714 20.7426 30.1697 20.9646 30.0566C21.0165 30.0566 21.0314 29.955 21.061 29.897L20.779 29.7302C21.8936 28.7954 22.8901 27.7341 23.7475 26.5687C24.2225 25.9596 24.6826 25.3287 25.113 24.6833C25.3197 24.3996 25.4684 24.0795 25.5508 23.7407C25.6739 23.1942 25.8555 22.6619 26.0926 22.1526C26.6295 20.7822 26.9644 19.3441 27.087 17.8816C27.024 17.2624 26.9943 16.6403 26.998 16.018C26.9275 15.7812 26.9275 15.5297 26.998 15.2929C27.1761 15.2929 27.228 15.3944 27.2577 15.5322V15.6337C27.2467 16.5406 27.3819 17.4436 27.6585 18.3094C27.7549 18.3094 27.844 18.0701 28.0963 18.2514C28.1319 19.4373 27.9664 20.6207 27.6065 21.7538C27.1116 23.1016 26.4539 24.3869 25.6473 25.5825C25.4618 25.858 25.1724 26.0973 25.1798 26.4744C25.3653 26.4744 25.4544 26.2931 25.5583 26.1699C26.0224 25.5925 26.4252 24.9706 26.7605 24.3135C27.8621 22.4616 28.4217 20.3495 28.3783 18.2079C28.3279 17.5085 28.4661 16.8085 28.779 16.1776C28.8874 15.9564 28.9744 15.7257 29.0388 15.4887C29.1024 15.2582 29.2126 15.0425 29.363 14.8545C29.5134 14.6664 29.701 14.5097 29.9145 14.3937C30.0481 14.43 30.0555 14.5315 30.0777 14.633C30.1199 15.1236 30.2375 15.6052 30.4265 16.0615C30.6868 16.5553 30.7999 17.1106 30.7531 17.6641C30.7651 17.7884 30.7951 17.9105 30.8421 18.0266C31.0351 18.0992 31.1761 18.0774 31.2651 17.9541C31.4103 17.7551 31.516 17.5313 31.5768 17.2943C31.8034 16.271 31.9351 15.2298 31.9701 14.1834C31.972 14.0077 31.9521 13.8324 31.9108 13.6614ZM13.0314 3.98087C13.0922 3.91369 13.1707 3.864 13.2583 3.83717C13.3459 3.81034 13.4394 3.80737 13.5286 3.82859H13.5805C13.8254 3.54579 14.1297 3.65456 14.5453 3.67631C14.2435 3.81075 13.9103 3.86334 13.5805 3.82859H13.536C13.4247 4.01712 13.2614 4.03163 13.0314 3.98087ZM12.2076 14.633C12.2661 14.4716 12.3355 14.3141 12.4154 14.1617C12.693 13.4893 13.2244 12.9468 13.8996 12.6462C14.1594 12.5447 14.4117 12.4069 14.6418 12.3054C14.7034 12.2811 14.772 12.2794 14.8347 12.3008C14.8975 12.3221 14.9502 12.3649 14.9831 12.4214C14.9285 12.4265 14.8776 12.4505 14.8395 12.489C14.8014 12.5276 14.7786 12.5782 14.7753 12.6317C14.6406 12.6446 14.5113 12.6897 14.3987 12.763C14.286 12.8364 14.1937 12.9357 14.1297 13.0522C14.079 13.0676 14.033 13.0948 13.9955 13.1314C13.958 13.168 13.9302 13.213 13.9145 13.2625C13.8632 13.2767 13.8165 13.3034 13.7788 13.3403C13.7411 13.3771 13.7138 13.4227 13.6993 13.4728C13.6492 13.4892 13.6037 13.5167 13.5663 13.5532C13.529 13.5897 13.5008 13.6342 13.4841 13.6831C13.4328 13.6973 13.3861 13.724 13.3484 13.7608C13.3107 13.7977 13.2833 13.8433 13.2688 13.8934C13.2195 13.9112 13.1748 13.9392 13.1376 13.9755C13.1005 14.0118 13.0718 14.0555 13.0536 14.1037C12.6529 14.3285 12.4748 14.7636 12.1482 15.0681C11.9924 14.9158 12.1631 14.7708 12.2076 14.633ZM10.1223 17.7148C10.1348 18.1319 10.11 18.5492 10.0481 18.9621C9.97749 19.2994 9.97749 19.6472 10.0481 19.9845C10.137 20.3566 10.137 20.7436 10.0481 21.1157C9.64732 20.8111 9.68443 20.3906 9.65474 20.0352C9.48272 18.9984 9.61392 17.9351 10.0332 16.9679C10.1486 17.1999 10.18 17.4632 10.1223 17.7148ZM15.1835 12.8565C13.7607 14.5711 12.5524 16.4455 11.5842 18.44C11.4669 18.6552 11.3953 18.8914 11.3736 19.1344C11.352 19.3774 11.3807 19.6221 11.4581 19.854C11.5325 20.0135 11.5729 20.1862 11.5768 20.3616C11.5465 21.2378 11.7404 22.1076 12.1408 22.8923C12.1763 22.9856 12.1988 23.0831 12.2076 23.1823C12.1037 23.3563 11.9701 23.3201 11.8366 23.2621C11.3951 23.0267 11.0252 22.6813 10.7645 22.261C10.5038 21.8407 10.3616 21.3605 10.3523 20.8692C10.1471 19.1254 10.3062 17.3591 10.8199 15.6772C11.0557 15.0655 11.4139 14.506 11.8737 14.0312C11.9108 14.0413 11.9449 14.0602 11.973 14.0861C12.001 14.112 12.0221 14.1442 12.0346 14.18C12.047 14.2157 12.0503 14.2538 12.0443 14.291C12.0382 14.3283 12.023 14.3635 11.9998 14.3937C11.5938 15.2102 11.2754 16.0656 11.0499 16.9462C10.6877 18.0282 10.5367 19.1671 10.6046 20.3035C10.7804 20.1591 10.8986 19.9589 10.9386 19.7379C11.0202 19.3609 11.1019 19.0128 11.1612 18.6067C11.3822 17.2892 11.9048 16.0375 12.69 14.9448C12.9063 14.7248 13.0576 14.4517 13.1278 14.1544C13.1805 14.1432 13.2288 14.1174 13.267 14.0801C13.3051 14.0428 13.3315 13.9957 13.3431 13.9442C13.3954 13.9321 13.4432 13.906 13.4812 13.8689C13.5192 13.8317 13.5459 13.785 13.5583 13.7339C13.6083 13.7175 13.6538 13.6899 13.6912 13.6535C13.7285 13.617 13.7567 13.5725 13.7735 13.5236C13.8262 13.5123 13.8745 13.4865 13.9126 13.4492C13.9508 13.412 13.9772 13.3648 13.9887 13.3133C14.0431 13.3059 14.0936 13.2814 14.1324 13.2434C14.1712 13.2055 14.1963 13.1562 14.2039 13.103C14.3375 13.0866 14.4654 13.0401 14.5775 12.9671C14.6895 12.8941 14.7827 12.7967 14.8495 12.6824C14.9025 12.6744 14.9515 12.6506 14.9901 12.6142C15.0286 12.5779 15.0547 12.5308 15.0648 12.4794L15.3542 12.5447C15.3987 12.6824 15.2651 12.7622 15.1835 12.8565ZM23.6213 3.89385C24.4377 3.89385 24.4377 3.89385 24.8384 4.61898L23.6213 3.89385ZM24.1111 19.9265C24.1075 19.9529 24.1075 19.9798 24.1111 20.0062H24.0666C24.0666 20.086 24.0666 20.1658 24.0072 20.2528C23.8959 20.115 23.9701 20.0498 24.0666 20.0062C24.1631 19.9627 24.0666 20.0062 24.0666 19.9627C24.0642 19.9459 24.0642 19.9288 24.0666 19.912C24.0836 19.1346 24.2576 18.3683 24.5787 17.6568C24.6502 18.4416 24.4879 19.2299 24.1111 19.9265ZM26.0184 10.1517L23.792 6.74361C23.9256 6.54058 24.0518 6.6421 24.1557 6.74361C24.6531 7.11548 25.1173 7.52787 25.5434 7.97633C25.7305 8.16809 25.8737 8.39664 25.9633 8.64672C26.0528 8.8968 26.0868 9.16267 26.0629 9.42659C26.0481 9.57887 26.0406 9.7529 26.0184 10.1517ZM27.8366 17.7656C27.7714 17.6554 27.7371 17.5303 27.7371 17.403C27.7371 17.2757 27.7714 17.1507 27.8366 17.0405C27.911 17.2693 27.911 17.515 27.8366 17.7438V17.7656Z" fill="#7ED956"/>
<path fill-rule="evenodd" clip-rule="evenodd" d="M24.8385 26.7282C24.2825 27.3966 23.6693 28.0177 23.0055 28.5845C22.9418 28.651 22.8892 28.7268 22.8496 28.8093C22.9054 28.8248 22.9645 28.8248 23.0203 28.8093C23.8408 28.2299 24.5601 27.5247 25.1502 26.7209C25.1502 26.6774 25.1502 26.6049 25.1502 26.5469C25.0878 26.5531 25.0277 26.5726 24.9738 26.6039C24.92 26.6352 24.8738 26.6776 24.8385 26.7282Z" fill="#7ED956"/>
<path fill-rule="evenodd" clip-rule="evenodd" d="M11.3693 4.677C10.5789 4.92989 9.82931 5.29123 9.14296 5.75019C9.14296 5.75019 9.09101 5.83721 9.07617 5.89522C9.84982 5.63618 10.5955 5.30344 11.3025 4.90179C11.3099 4.86554 11.3396 4.76402 11.3693 4.677Z" fill="#7ED956"/>
<path fill-rule="evenodd" clip-rule="evenodd" d="M21.9668 29.4329C22.0922 29.4276 22.2137 29.389 22.3183 29.3213C22.4229 29.2536 22.5066 29.1593 22.5605 29.0486C22.4309 29.0332 22.3 29.0635 22.1912 29.1339C22.0825 29.2044 22.0029 29.3103 21.9668 29.4329Z" fill="#7ED956"/>
<path fill-rule="evenodd" clip-rule="evenodd" d="M22.5605 29.0484H22.5977C22.5977 29.0484 22.5605 29.0417 22.5605 29.0484Z" fill="#7ED956"/>
<path fill-rule="evenodd" clip-rule="evenodd" d="M21.0977 29.8607C21.2609 29.8607 21.4168 29.8607 21.4761 29.6722C21.3129 29.6722 21.157 29.6649 21.0977 29.8607Z" fill="#7ED956"/>
<path fill-rule="evenodd" clip-rule="evenodd" d="M21.9219 29.4617H21.8848C21.8848 29.4617 21.9219 29.455 21.9219 29.4617Z" fill="#7ED956"/>
<path fill-rule="evenodd" clip-rule="evenodd" d="M21.5215 29.6506C21.6773 29.6506 21.8332 29.6506 21.9074 29.462C21.7515 29.4403 21.6031 29.4693 21.5215 29.6506Z" fill="#7ED956"/>
<path fill-rule="evenodd" clip-rule="evenodd" d="M22.5981 29.005C22.7094 29.005 22.7911 28.947 22.7837 28.8237C22.6723 28.8455 22.5907 28.889 22.5981 29.005Z" fill="#7ED956"/>
</g>
</svg>
