<svg  viewBox="0 0 32 32" fill="none" xmlns="http://www.w3.org/2000/svg">
<g clip-path="url(#clip0_191_1117)">
<path fill-rule="evenodd" clip-rule="evenodd" d="M18.2988 22.3572V22.3842H18.3419C18.3401 22.3708 18.3401 22.3572 18.3419 22.3438L18.2988 22.3572Z" fill="#7ED956"/>
<path fill-rule="evenodd" clip-rule="evenodd" d="M31.3785 3.37288C31.2864 3.3134 31.18 3.27649 31.0688 3.26551C30.9576 3.25453 30.8453 3.26982 30.742 3.31001C30.675 3.39983 30.541 3.56152 30.4069 3.73218C30.2863 3.62676 30.1988 3.49225 30.1541 3.34335C30.1094 3.19444 30.1091 3.03687 30.1533 2.88783C30.2103 2.67618 30.255 2.46178 30.2873 2.24559C30.3112 2.12416 30.2993 1.99891 30.2529 1.88335C30.2065 1.7678 30.1274 1.66632 30.0241 1.58987C29.7177 1.71562 29.3779 1.47309 29.0142 1.52699C28.6737 1.7 28.3817 1.94626 28.1623 2.24559C27.9673 2.46523 27.7457 2.66269 27.5018 2.83394C27.4296 2.89516 27.3358 2.92906 27.2385 2.92906C27.1413 2.92906 27.0475 2.89516 26.9753 2.83394C26.9743 2.76231 26.9917 2.69152 27.0258 2.62745C27.0599 2.56339 27.1099 2.50791 27.1715 2.46566C27.4396 2.21415 27.6884 1.93569 27.9804 1.70215C28.1729 1.52785 28.3254 1.31836 28.4283 1.08662C28.5312 0.85488 28.5823 0.605806 28.5787 0.354779C28.5787 0.121235 28.4781 -0.0629055 28.1 -0.0224844C27.9233 0.370298 27.6413 0.713559 27.2816 0.974018C26.9219 1.23448 26.4965 1.4033 26.0468 1.46411C25.9558 1.7008 25.7976 1.90962 25.5892 2.06796C25.3808 2.22629 25.1303 2.3281 24.8646 2.36236C24.6456 2.83092 24.3187 3.24813 23.9074 3.58397C23.4527 4.04208 23.0172 4.42383 22.5912 4.83702C21.1824 6.11168 19.8529 7.46128 18.6092 8.87913C17.7453 9.88509 16.815 10.8391 15.8236 11.7356C15.7385 11.8475 15.6285 11.9407 15.5013 12.009C15.374 12.0772 15.2326 12.1188 15.0866 12.1308C14.608 11.8029 13.981 11.6412 13.4306 11.3224C11.9277 10.469 10.4393 9.59473 8.96513 8.69948C8.44769 8.39425 7.90326 8.1313 7.33785 7.91352C5.93073 7.36109 4.46618 6.98383 3.08299 6.3326C2.94351 6.27426 2.79475 6.23785 2.64267 6.22481C2.18798 6.15295 1.96782 6.28769 1.79074 6.73681C1.74522 6.92586 1.63817 7.09694 1.48443 7.22636L0.771293 7.42846C0.5521 7.49829 0.358118 7.62431 0.211317 7.79225C0.14613 7.8462 0.0939221 7.91255 0.0581615 7.98688C0.0224009 8.06122 0.00390625 8.14185 0.00390625 8.22341C0.00390625 8.30497 0.0224009 8.3856 0.0581615 8.45994C0.0939221 8.53428 0.14613 8.60062 0.211317 8.65457C0.40762 8.82119 0.619007 8.97147 0.843085 9.10369C1.21777 9.28673 1.51239 9.58703 1.67587 9.95253C1.83263 10.2857 2.1183 10.5505 2.47515 10.6936C2.93983 10.9328 3.41929 11.1457 3.91099 11.3313C4.54276 11.5462 5.1365 11.849 5.67228 12.2296V12.2745H5.71057L5.67228 12.2476C5.84647 12.2517 6.01714 12.2945 6.17024 12.3726C6.32333 12.4507 6.45449 12.5618 6.55293 12.6967H6.60557L6.64386 12.7326L6.78266 12.7551C6.81616 12.7551 6.8736 12.7551 6.8736 12.782C6.8736 12.809 6.83052 12.8853 6.74916 12.8314C6.70834 12.8043 6.67273 12.7709 6.64386 12.7326H6.57686L6.55293 12.7057H5.96423C6.39904 13.0277 6.7798 13.4092 7.09376 13.8374C7.23875 14.0474 7.44015 14.2178 7.67767 14.3315C8.13243 14.5958 8.61326 14.8184 9.1135 14.9962C9.93031 15.274 10.7238 15.6088 11.4874 15.9977C11.6119 16.0606 11.7698 16.1145 11.7602 16.2941C11.6166 16.6355 11.3151 16.5816 11.028 16.5726L11.1428 16.8421C11.0364 17.0948 10.8731 17.3231 10.6642 17.5113L10.0851 17.4259C10.0851 17.5831 10.3292 17.6819 10.2287 17.911C10.0229 18.0233 9.75006 17.7268 9.51554 17.9379L9.99415 18.3287C9.90721 18.6427 9.74332 18.9334 9.51554 19.1775C9.35759 19.438 9.10872 19.6626 9.1135 19.9949C9.1135 19.9949 9.13743 19.9949 9.15179 19.9949L9.58254 19.8063C9.58254 19.8063 9.58254 19.7793 9.58254 19.7659H9.61126C9.59734 19.6337 9.63265 19.501 9.71118 19.3905C9.78971 19.2799 9.90661 19.1983 10.042 19.1596V19.1281C10.0339 19.0269 10.0582 18.9257 10.112 18.8377C10.1657 18.7496 10.2464 18.6787 10.3435 18.6341C10.3435 18.9215 10.3435 18.9305 10.042 19.1281C10.042 19.1281 10.042 19.1506 10.042 19.164H10.0181C10.0349 19.2967 10.0007 19.4306 9.92178 19.5417C9.84283 19.6528 9.72425 19.7339 9.58733 19.7704C9.58499 19.7822 9.58499 19.7944 9.58733 19.8063H9.55382C9.54421 19.9285 9.50014 20.0462 9.42613 20.1472C9.35213 20.2482 9.25084 20.329 9.13265 20.3812V20.4261C9.10561 20.4369 9.07992 20.4504 9.05607 20.4665L9.02257 20.5069C9.02257 20.5069 9.02256 20.4755 9.05128 20.4665L9.09914 20.3991H9.12786C9.12786 20.2734 9.12786 20.1431 9.12786 20.0129H9.08957V19.9859C8.81676 20.0533 8.7354 20.2958 8.61096 20.489C8.0497 21.3309 7.43768 22.1422 6.77787 22.9187C6.34712 23.4127 5.9068 23.8933 5.47605 24.3873C5.40126 24.4602 5.34381 24.5471 5.30751 24.6423C5.2712 24.7376 5.25687 24.8389 5.26546 24.9398C5.60049 24.8948 5.69143 24.5805 5.91159 24.4098C6.13175 24.2391 6.22747 24.0101 6.58643 24.037C6.57314 24.4283 6.42161 24.8043 6.15568 25.1059C5.71126 25.7708 5.20515 26.3975 4.64326 26.9788C4.00823 27.6426 3.43949 28.3597 2.94419 29.1211C2.81178 29.278 2.74232 29.4735 2.74796 29.6735C3.00163 29.5792 3.10692 29.3412 3.27443 29.166C3.44195 28.9909 3.51853 28.8247 3.67647 28.7932C4.43746 28.6405 4.73899 28.0342 5.16495 27.5492C5.38511 27.3021 5.59092 27.0417 5.82065 26.8036C5.87519 26.7333 5.94747 26.6768 6.031 26.6392C6.11453 26.6016 6.20671 26.584 6.29926 26.588C6.40986 26.5932 6.51584 26.6312 6.60189 26.6966C6.68793 26.762 6.74957 26.8514 6.77787 26.9518L6.26576 28.1016C7.09376 28.3082 7.34264 28.8651 7.357 29.5612C7.357 29.7409 7.32828 29.9205 7.32828 30.1002C7.34259 30.2097 7.36661 30.3178 7.40007 30.4236L8.22807 30.7649C8.46259 30.8877 8.66783 31.0543 8.83112 31.2544C9.03692 31.4655 8.88377 31.8293 9.17572 32C10.1617 31.7305 10.3292 31.6452 10.9035 30.8727C11.609 29.9355 12.3696 29.0358 13.1817 28.1779C14.3373 26.9347 15.3676 25.5936 16.2592 24.1718C16.6469 23.561 17.068 22.9681 17.5036 22.4112L18.3172 22.3573L18.0157 21.9082C18.564 21.9747 19.0762 22.2009 19.4802 22.5549C19.5534 22.548 19.6272 22.548 19.7004 22.5549C20.3561 22.7031 20.9735 23.0714 21.6914 22.8244C21.7776 22.793 21.9068 22.8828 22.0217 22.9007C22.9959 23.0846 23.9339 23.4088 24.8024 23.8619C26.1909 24.5305 27.6686 25.0214 29.1961 25.3215C29.3818 25.3567 29.5719 25.3673 29.7608 25.353C29.9236 25.353 30.0193 25.2272 29.981 25.0161C29.7564 24.8472 29.483 24.7455 29.1961 24.7242C28.2924 24.5757 27.4116 24.3238 26.5733 23.9741C25.2284 23.3948 23.9744 22.6268 22.5721 22.1777C22.5086 22.1432 22.4493 22.1026 22.395 22.0564C22.5625 21.9306 22.8209 21.9486 22.9358 21.7555C22.7285 21.7967 22.5127 21.7763 22.3184 21.6971C22.0791 21.6207 21.8398 21.5848 21.5718 21.5309C21.5202 21.4635 21.4517 21.409 21.3724 21.3722C21.2932 21.3354 21.2055 21.3174 21.1171 21.3198C21.0166 21.1492 20.8204 21.1492 20.6385 21.1043C20.3848 20.7494 19.8248 20.7674 19.5951 20.3767C19.6717 20.3767 19.753 20.3093 19.8105 20.3273C20.8444 20.6575 21.8466 21.0692 22.8066 21.5579C22.8545 21.5803 22.8784 21.6522 22.9071 21.7106H22.9406C22.9406 21.7106 22.9406 21.7106 22.9406 21.7375C23.0938 21.7375 23.2804 21.7375 23.3474 21.8588C23.4239 22.0016 23.5397 22.1227 23.6827 22.2096C23.8257 22.2964 23.9909 22.3459 24.1611 22.3528C24.946 22.4831 25.7166 22.6582 26.4919 22.8019C27.4491 22.9996 28.4064 23.2061 29.3636 23.3948C29.4691 23.4014 29.575 23.3876 29.6747 23.3544C29.6537 23.2813 29.6095 23.2159 29.5479 23.1669C29.4863 23.118 29.4104 23.0878 29.3301 23.0804C28.9615 22.9861 28.593 22.9052 28.2245 22.8154C28.1165 22.7827 28.0194 22.724 27.943 22.6452C27.8666 22.5665 27.8135 22.4703 27.7889 22.3663H27.7554C27.7172 22.3124 27.698 22.281 27.7842 22.3393C28.0665 22.2765 28.3729 22.4157 28.6361 22.2405C28.6361 21.8543 28.6361 21.7914 28.5116 21.7914C28.1479 21.6791 27.7842 21.5713 27.4204 21.477C26.8438 21.3948 26.2896 21.2088 25.7883 20.9291C26.784 20.848 27.7869 20.9039 28.7653 21.0953C28.9233 20.5159 29.4737 20.2599 29.847 19.8108C29.2966 19.4066 28.6361 19.438 28.0426 19.1371C27.8177 18.414 26.803 18.0278 26.8748 17.134C26.4506 16.8457 25.9576 16.6591 25.439 16.5906C24.8867 16.4501 24.3447 16.276 23.8165 16.0696C23.7034 16.0495 23.6008 15.9943 23.5252 15.9128C23.4497 15.8313 23.4056 15.7283 23.4001 15.6205C23.6311 15.2112 23.941 14.8457 24.3142 14.5426C25.8171 13.1144 27.3247 11.6876 28.8371 10.2624C29.1099 10.0064 29.4545 9.77738 29.5072 9.41359C29.5689 8.97773 29.7987 8.57824 30.1533 8.29078C30.3199 8.14281 30.4462 7.95954 30.5218 7.75632C30.6489 7.37964 30.892 7.04675 31.2206 6.79969C31.4305 6.64123 31.599 6.43993 31.7135 6.21112C31.8279 5.98231 31.8853 5.73201 31.8811 5.47927C31.8811 5.12446 31.9577 4.76966 31.9912 4.41036C32.0408 4.1971 32.006 3.97418 31.8933 3.78324C31.7805 3.59231 31.5975 3.44644 31.3785 3.37288ZM8.50088 13.9812H8.45302C8.44421 13.966 8.43091 13.9535 8.41473 13.9452C8.3444 13.9476 8.27459 13.9331 8.21182 13.9033C8.14905 13.8734 8.09536 13.8292 8.05577 13.7746H7.99834L7.96005 13.7386H7.82604C7.79253 13.7386 7.7351 13.7386 7.73031 13.7162C7.72553 13.6937 7.75903 13.6174 7.84518 13.6623C7.88767 13.6854 7.92636 13.7141 7.96005 13.7476H8.02705C8.03371 13.7641 8.04343 13.7793 8.05577 13.7925C8.19205 13.8112 8.3181 13.8711 8.41473 13.9632H8.48173V14.0036L8.74976 14.062C8.61575 14.1608 8.55353 14.08 8.50088 13.9812ZM21.5383 21.5219C21.5383 21.5848 21.5383 21.6477 21.5383 21.7151L21.5766 21.7465H21.7201C21.7536 21.7465 21.8111 21.7465 21.8159 21.769C21.8207 21.7914 21.7871 21.8723 21.701 21.8318C21.6545 21.8085 21.6125 21.7782 21.5766 21.742H21.5096C21.5096 21.742 21.5096 21.7151 21.5096 21.7061C21.3605 21.6816 21.2233 21.6141 21.1171 21.513L21.5383 21.5219ZM21.0597 21.3064V21.486C20.9113 21.4546 20.7438 21.4546 20.6528 21.3064H21.0597ZM20.4375 21.1087H20.6098V21.2929C20.5511 21.2931 20.4929 21.2839 20.4375 21.2659C20.3992 21.2659 20.3752 21.2031 20.3465 21.1671C20.373 21.1428 20.4037 21.1231 20.4375 21.1087ZM26.6211 22.007C26.647 22.0171 26.6712 22.0307 26.6929 22.0474C26.6644 22.0513 26.6353 22.0513 26.6068 22.0474C26.5781 22.0474 26.5589 22.0205 26.535 22.007H26.6211Z" fill="#7ED956"/>
<path fill-rule="evenodd" clip-rule="evenodd" d="M10.0508 17.3899L10.0795 17.4213H10.1082C10.1057 17.411 10.1057 17.4002 10.1082 17.3899H10.0508Z" fill="#7ED956"/>
<path fill-rule="evenodd" clip-rule="evenodd" d="M9.09416 16.7164C8.39442 16.2869 7.66892 15.8955 6.92126 15.5442C5.96404 15.131 4.94938 14.7986 3.9443 14.4708C3.67627 14.381 3.40825 14.1878 3.09715 14.2821C3.07689 14.3009 3.06081 14.3233 3.04983 14.348C3.03886 14.3727 3.0332 14.3991 3.0332 14.4259C3.0332 14.4526 3.03886 14.4791 3.04983 14.5037C3.06081 14.5284 3.07689 14.5508 3.09715 14.5696C3.51586 14.9363 4.01848 15.2083 4.56649 15.3645C6.00233 15.8451 7.38073 16.4469 8.78306 16.9993C9.16612 17.1985 9.58449 17.3309 10.0179 17.3901C9.77804 17.0936 9.45954 16.8613 9.09416 16.7164Z" fill="#7ED956"/>
<path fill-rule="evenodd" clip-rule="evenodd" d="M19.1461 22.9053C19.9119 23.2107 20.6825 23.4981 21.4531 23.8035C21.5105 23.8035 21.5919 23.7766 21.7067 23.7541C21.4284 23.5258 21.1024 23.3544 20.7495 23.2511C20.2908 23.1354 19.8698 22.9147 19.5242 22.6088L18.4043 22.4067C18.4952 22.7121 18.835 22.793 19.1461 22.9053Z" fill="#7ED956"/>
<path fill-rule="evenodd" clip-rule="evenodd" d="M19.4797 22.5954C19.4797 22.5954 19.4558 22.5954 19.4414 22.564L19.4797 22.5954Z" fill="#7ED956"/>
<path fill-rule="evenodd" clip-rule="evenodd" d="M27.9187 25.9279C27.5358 25.8381 27.1482 25.7617 26.5547 25.636C27.0859 26.0851 27.5981 25.9818 28.0671 26.0851C28.0145 26.0492 27.9762 25.9414 27.9187 25.9279Z" fill="#7ED956"/>
<path fill-rule="evenodd" clip-rule="evenodd" d="M25.0703 25.2811C25.1757 25.401 25.316 25.4895 25.4741 25.5358C25.6322 25.582 25.8012 25.5841 25.9605 25.5416C25.6877 25.4293 25.4532 25.1868 25.0703 25.2811Z" fill="#7ED956"/>
<path fill-rule="evenodd" clip-rule="evenodd" d="M22.084 24.0281C22.1862 24.1224 22.3086 24.1952 22.4431 24.2417C22.5776 24.2882 22.7212 24.3072 22.8641 24.2976C22.4956 23.9967 22.4573 23.9967 22.084 24.0281Z" fill="#7ED956"/>
<path fill-rule="evenodd" clip-rule="evenodd" d="M22.8633 24.2975L22.9016 24.3244H22.9734C22.9734 24.3244 22.9734 24.3244 22.9494 24.293L22.8633 24.2975Z" fill="#7ED956"/>
<path fill-rule="evenodd" clip-rule="evenodd" d="M4.78733 25.5641C4.90477 25.5095 5.00473 25.4268 5.07703 25.3242C5.14933 25.2217 5.19139 25.103 5.19893 24.9802C5.07482 25.0262 4.96877 25.1069 4.89515 25.2113C4.82153 25.3158 4.78389 25.4389 4.78733 25.5641Z" fill="#7ED956"/>
<path fill-rule="evenodd" clip-rule="evenodd" d="M5.2168 24.9801H5.24551C5.24551 24.9801 5.24551 24.9801 5.24551 24.9531H5.22158C5.22158 24.9531 5.2168 24.9666 5.2168 24.9801Z" fill="#7ED956"/>
<path fill-rule="evenodd" clip-rule="evenodd" d="M8.71583 15.2701C8.71583 15.2701 8.71583 15.2701 8.71583 15.2432H8.66797C8.66797 15.2432 8.66797 15.2432 8.66797 15.2746L8.71583 15.2701Z" fill="#7ED956"/>
<path fill-rule="evenodd" clip-rule="evenodd" d="M9.09363 15.4499C9.05605 15.3856 8.99812 15.3337 8.92783 15.3015C8.85755 15.2694 8.77836 15.2584 8.70117 15.2703C8.79211 15.4364 8.94048 15.4589 9.09363 15.4499Z" fill="#7ED956"/>
<path fill-rule="evenodd" clip-rule="evenodd" d="M8.65418 15.2387C8.61904 15.1721 8.5617 15.1181 8.49087 15.0849C8.42004 15.0516 8.33958 15.041 8.26172 15.0546C8.33351 15.2252 8.49145 15.2342 8.65418 15.2387Z" fill="#7ED956"/>
<path fill-rule="evenodd" clip-rule="evenodd" d="M8.26075 15.0546C8.26075 15.0546 8.26075 15.0546 8.26075 15.0232H8.21289C8.21289 15.0232 8.21289 15.0456 8.21289 15.0591L8.26075 15.0546Z" fill="#7ED956"/>
<path fill-rule="evenodd" clip-rule="evenodd" d="M8.09456 14.9018C8.0132 14.8524 7.95098 14.9018 7.94141 14.9602C7.94141 14.9602 7.99884 14.9962 8.03234 15.0006H8.19507C8.16861 14.962 8.13449 14.9284 8.09456 14.9018Z" fill="#7ED956"/>
<path fill-rule="evenodd" clip-rule="evenodd" d="M24.3438 24.9802C24.3758 25.0228 24.4145 25.0607 24.4586 25.0924C24.5448 25.1419 24.607 25.0924 24.6022 25.0296C24.5974 24.9667 24.54 24.9936 24.5065 24.9891C24.4526 24.9815 24.3982 24.9785 24.3438 24.9802Z" fill="#7ED956"/>
<path fill-rule="evenodd" clip-rule="evenodd" d="M22.9746 24.3289C23.0141 24.3897 23.0708 24.4391 23.1384 24.4716C23.2059 24.5041 23.2818 24.5184 23.3575 24.513C23.2666 24.3513 23.1086 24.3423 22.9746 24.3289Z" fill="#7ED956"/>
<path fill-rule="evenodd" clip-rule="evenodd" d="M23.3379 24.5132C23.3379 24.5132 23.3379 24.5132 23.3379 24.5446H23.3953L23.3666 24.5132H23.3379Z" fill="#7ED956"/>
<path fill-rule="evenodd" clip-rule="evenodd" d="M23.4141 24.5491C23.4481 24.5944 23.4902 24.6339 23.5385 24.6658C23.6247 24.7152 23.6869 24.6658 23.6821 24.603C23.6773 24.5401 23.6199 24.567 23.5816 24.5625C23.5433 24.5581 23.4524 24.5536 23.4141 24.5491Z" fill="#7ED956"/>
<path fill-rule="evenodd" clip-rule="evenodd" d="M10.7064 16.303C10.6092 16.2081 10.4779 16.1504 10.3379 16.1414C10.4145 16.2851 10.5581 16.2986 10.7064 16.303Z" fill="#7ED956"/>
<path fill-rule="evenodd" clip-rule="evenodd" d="M10.339 16.1415C10.339 16.1415 10.339 16.1415 10.3151 16.1011H10.248C10.248 16.1011 10.2768 16.1235 10.2863 16.1415H10.339Z" fill="#7ED956"/>
<path fill-rule="evenodd" clip-rule="evenodd" d="M9.84567 15.9034C9.71645 15.8001 9.84567 15.9259 9.81695 15.9304H9.87917C9.87917 15.9304 9.85524 15.9169 9.84567 15.9034Z" fill="#7ED956"/>
<path fill-rule="evenodd" clip-rule="evenodd" d="M9.87891 15.9348C9.97855 16.0258 10.1089 16.0814 10.2474 16.092C10.2006 16.0437 10.1438 16.0048 10.0804 15.9778C10.0171 15.9508 9.94849 15.9361 9.87891 15.9348Z" fill="#7ED956"/>
<path fill-rule="evenodd" clip-rule="evenodd" d="M4.08321 24.2885L4.04492 24.3469L4.10236 24.3065L4.13586 24.2571L4.08321 24.2885Z" fill="#7ED956"/>
<path fill-rule="evenodd" clip-rule="evenodd" d="M24.2051 24.8723L24.2721 24.9172C24.2721 24.9172 24.229 24.8813 24.2051 24.8723Z" fill="#7ED956"/>
<path fill-rule="evenodd" clip-rule="evenodd" d="M24.2715 24.9172C24.2736 24.9366 24.2736 24.9562 24.2715 24.9756H24.3241V24.9442L24.2715 24.9172Z" fill="#7ED956"/>
<path fill-rule="evenodd" clip-rule="evenodd" d="M4.72852 25.636L4.78595 25.6C4.78364 25.5821 4.78364 25.564 4.78595 25.5461V25.6C4.76563 25.6103 4.7464 25.6223 4.72852 25.636Z" fill="#7ED956"/>
<path fill-rule="evenodd" clip-rule="evenodd" d="M4.67188 25.7078L4.72931 25.636H4.70059C4.70059 25.636 4.68145 25.6854 4.67188 25.7078Z" fill="#7ED956"/>
<path fill-rule="evenodd" clip-rule="evenodd" d="M10.8219 16.42C10.794 16.3859 10.7759 16.3457 10.7693 16.3032H10.707C10.707 16.3032 10.731 16.3032 10.7405 16.3302L10.8219 16.42Z" fill="#7ED956"/>
<path fill-rule="evenodd" clip-rule="evenodd" d="M10.8789 16.4783L10.9651 16.5726H11.0081V16.5412C10.9612 16.5281 10.9173 16.5068 10.8789 16.4783Z" fill="#7ED956"/>
<path fill-rule="evenodd" clip-rule="evenodd" d="M9.22298 15.5171L9.15118 15.4497H9.09375C9.09375 15.4497 9.09375 15.4497 9.09375 15.4767L9.22298 15.5171Z" fill="#7ED956"/>
<path fill-rule="evenodd" clip-rule="evenodd" d="M5.81175 12.5349L5.71602 12.4451L5.67773 12.4226V12.463C5.72688 12.4787 5.77237 12.5031 5.81175 12.5349Z" fill="#7ED956"/>
<path fill-rule="evenodd" clip-rule="evenodd" d="M5.83594 12.5754C5.87341 12.6099 5.89993 12.6534 5.91252 12.7012H5.96995C5.96995 12.7012 5.96995 12.7012 5.94602 12.7012L5.83594 12.5754Z" fill="#7ED956"/>
<path fill-rule="evenodd" clip-rule="evenodd" d="M5.67667 12.4228V12.2656C5.56659 12.315 5.57616 12.3689 5.67667 12.4228Z" fill="#7ED956"/>
<path fill-rule="evenodd" clip-rule="evenodd" d="M16.9957 9.39111L16.9335 9.44052L16.8809 9.50339L16.9574 9.46297L16.9957 9.39111Z" fill="#7ED956"/>
</g>
</svg>
